<?xml version="1.0" standalone="no"?>
<svg version="1.0" xmlns="http://www.w3.org/2000/svg"
 width="1200.000000pt" height="1200.000000pt" viewBox="0 0 1200.000000 1200.000000"
 preserveAspectRatio="xMidYMid meet">

<g transform="translate(0.000000,1200.000000) scale(0.100000,-0.100000)"
fill="#000000" stroke="none">
<path d="M5875 8993 c-687 -33 -1347 -300 -1849 -749 -207 -184 -367 -369
-522 -599 -244 -366 -394 -760 -470 -1240 -21 -134 -30 -535 -15 -688 77 -790
440 -1491 1036 -2005 440 -378 936 -603 1545 -699 166 -26 655 -26 820 0 578
92 1037 290 1470 633 117 93 391 369 480 484 287 371 486 794 579 1230 183
865 -17 1752 -555 2462 -100 132 -419 451 -549 549 -493 374 -1046 580 -1660
619 -88 5 -180 9 -205 8 -25 -1 -72 -3 -105 -5z m336 -294 c465 -37 915 -191
1291 -442 167 -111 251 -180 397 -322 629 -613 922 -1461 800 -2320 -45 -316
-127 -575 -274 -865 -67 -130 -197 -335 -270 -425 l-39 -47 -23 94 c-72 283
-199 544 -386 793 -82 109 -281 305 -399 393 -168 126 -379 241 -545 298 l-78
27 -86 -41 c-204 -98 -340 -127 -589 -127 -247 0 -366 25 -569 121 -51 24
-100 44 -108 44 -24 0 -194 -69 -297 -121 -416 -209 -768 -572 -967 -994 -58
-124 -91 -216 -133 -368 l-32 -118 -46 58 c-141 179 -311 485 -393 707 -301
815 -194 1731 287 2450 140 209 376 467 568 619 366 292 797 483 1256 557 234
39 414 47 635 29z"/>
<path d="M5880 8129 c-162 -19 -325 -80 -465 -174 -246 -163 -418 -432 -465
-727 -18 -110 -8 -321 19 -425 79 -302 285 -560 556 -696 346 -173 749 -152
1069 57 218 142 375 353 453 611 25 85 27 102 27 285 0 169 -3 205 -21 272
-83 295 -274 537 -537 679 -186 100 -424 145 -636 118z"/>
</g>
</svg>
